# xmcd CD database file
#
# Track frame offsets:
#	150
#	21483
#	53946
#
# Disc length: 3097 seconds
#
# Revision: 0
# Processed by: cddbd v1.5.2PL0 Copyright (c) Steve Scherf et al.
# Submitted via: CDex 1.70beta2
#
DISCID=230c1703
DTITLE=Goldfrapp - Caravan Girl (Maxi CD)
DYEAR=2008
DGENRE=New Age
TTITLE0=Caravan Girl (Live Choral Version)
TTITLE1=Moster Love (Live Acoustic Version)
TTITLE2=Little Bird (Live At The Union Chappel - Video)
EXTD=YEAR: 2008
EXTT0=
EXTT1=
EXTT2=
PLAYORDER=
